# File created by Blade
# Date/Time:  Tue Jan 27 18:09:18 2015
#---------------------------------------------------------
:version 1.10
:name HOM
:units
  mass 1.0
  length 1.000000
  angle deg
:documentation
     Acclaim Skeleton File
:root
   axis xyz
   order TX TY TZ RX RY RZ
   position 0.000000 0.000000 0.000000
   orientation 0 0 0
:bonedata
   begin
      id 1
      name Spine_dum
      direction 0.000000 1.000000 0.000000
      length 5.195262
      axis 0.0 0.0 0.0 xyz
   end
   begin
      id 2
      name LeftUpLeg_dum
      direction 1.000000 0.000000 0.000000
      length 3.351363
      axis 0.0 0.0 0.0 xyz
   end
   begin
      id 3
      name RightUpLeg_dum
      direction -1.000000 0.000000 0.000000
      length 3.351363
      axis 0.0 0.0 0.0 xyz
   end
   begin
      id 4
      name Spine
      direction 0.000000 1.000000 0.000000
      length 0.000000
      axis 0.0 0.0 0.0 xyz
      dof rx ry rz
   end
   begin
      id 5
      name Spine_dum1
      direction 0.000000 1.000000 0.000000
      length 15.653875
      axis 0.0 0.0 0.0 xyz
   end
   begin
      id 6
      name Spine_dum2
      direction 0.000000 1.000000 0.000000
      length 10.329768
      axis 0.0 0.0 0.0 xyz
   end
   begin
      id 7
      name Spine_dum3
      direction 0.000000 1.000000 0.000000
      length 10.329768
      axis 0.0 0.0 0.0 xyz
   end
   begin
      id 8
      name Head
      direction 0.000000 1.000000 0.000000
      length 4.527550
      axis 0.0 0.0 0.0 xyz
      dof rx ry rz
   end
   begin
      id 9
      name LeftShoulder
      direction 1.000000 0.000000 0.000000
      length 6.996006
      axis 0.0 0.0 -90.0 xyz
      dof rx ry rz
   end
   begin
      id 10
      name LeftArm
      direction 1.000000 0.000000 0.000000
      length 10.209302
      axis 0.0 0.0 -90.0 xyz
      dof rx ry rz
   end
   begin
      id 11
      name LeftForeArm
      direction 1.000000 0.000000 0.000000
      length 8.563163
      axis 0.0 0.0 -90.0 xyz
      dof ry rz rx
   end
   begin
      id 12
      name LeftHand
      direction 0.000000 0.000000 0.000000
      length 0.000000
      axis 0.0 0.0 -90.0 xyz
      dof rx ry rz
   end
   begin
      id 13
      name LeftHand_dum1
      direction 0.000000 0.000000 0.000000
      length 0.000000
      axis 0.0 0.0 -90.0 xyz
   end
   begin
      id 14
      name LeftHand_dum2
      direction 1.000000 0.000000 0.000000
      length 3.937000
      axis 0.0 0.0 -90.0 xyz
   end
   begin
      id 15
      name LeftHandThumb1
      direction 0.000000 0.000000 1.000000
      length 3.937000
      axis 0.0 0.0 -90.0 xyz
      dof rx rz ry
   end
   begin
      id 16
      name RightShoulder
      direction -1.000000 0.000000 0.000000
      length 6.996006
      axis 0.0 0.0 90.0 xyz
      dof rx ry rz
   end
   begin
      id 17
      name RightArm
      direction -1.000000 0.000000 0.000000
      length 10.209302
      axis 0.0 0.0 90.0 xyz
      dof rx ry rz
   end
   begin
      id 18
      name RightForeArm
      direction -1.000000 0.000000 0.000000
      length 8.563163
      axis 0.0 0.0 90.0 xyz
      dof ry rz rx
   end
   begin
      id 19
      name RightHand
      direction 0.000000 0.000000 0.000000
      length 0.000000
      axis 0.0 0.0 90.0 xyz
      dof rx ry rz
   end
   begin
      id 20
      name RightHand_dum1
      direction 0.000000 0.000000 0.000000
      length 0.000000
      axis 0.0 0.0 90.0 xyz
   end
   begin
      id 21
      name RightHand_dum2
      direction -1.000000 0.000000 0.000000
      length 3.937000
      axis 0.0 0.0 90.0 xyz
   end
   begin
      id 22
      name RightHandThumb1
      direction 0.000000 0.000000 1.000000
      length 3.937000
      axis 0.0 0.0 90.0 xyz
      dof rx rz ry
   end
   begin
      id 23
      name LeftUpLeg
      direction 0.000000 -1.000000 0.000000
      length 16.346831
      axis 0.0 0.0 0.0 xyz
      dof rx ry rz
   end
   begin
      id 24
      name LeftLeg
      direction 0.000000 -1.000000 0.000000
      length 13.959795
      axis 0.0 0.0 0.0 xyz
      dof rx ry rz
   end
   begin
      id 25
      name LeftFoot
      direction 0.000000 -0.258819 0.965926
      length 5.165550
      axis 15.0 0.0 0.0 xyz
      dof rx ry rz
   end
   begin
      id 26
      name LeftToeBase
      direction 0.000000 0.000000 1.000000
      length 2.952750
      axis 0.0 0.0 0.0 xyz
      dof rx ry rz
   end
   begin
      id 27
      name RightUpLeg
      direction 0.000000 -1.000000 0.000000
      length 16.346831
      axis 0.0 0.0 0.0 xyz
      dof rx ry rz
   end
   begin
      id 28
      name RightLeg
      direction 0.000000 -1.000000 0.000000
      length 13.959795
      axis 0.0 0.0 0.0 xyz
      dof rx ry rz
   end
   begin
      id 29
      name RightFoot
      direction 0.000000 -0.258819 0.965926
      length 5.165550
      axis 15.0 0.0 0.0 xyz
      dof rx ry rz
   end
   begin
      id 30
      name RightToeBase
      direction 0.000000 0.000000 1.000000
      length 2.952750
      axis 0.0 0.0 0.0 xyz
      dof rx ry rz
   end
:hierarchy
   begin
      root Spine_dum LeftUpLeg_dum RightUpLeg_dum
      Spine_dum Spine
      LeftUpLeg_dum LeftUpLeg
      RightUpLeg_dum RightUpLeg
      Spine Spine_dum1 Spine_dum2 Spine_dum3
      Spine_dum1 Head
      Spine_dum2 LeftShoulder
      Spine_dum3 RightShoulder
      LeftShoulder LeftArm
      LeftArm LeftForeArm
      LeftForeArm LeftHand
      LeftHand LeftHand_dum1 LeftHand_dum2
      LeftHand_dum1 LeftHandThumb1
      RightShoulder RightArm
      RightArm RightForeArm
      RightForeArm RightHand
      RightHand RightHand_dum1 RightHand_dum2
      RightHand_dum1 RightHandThumb1
      LeftUpLeg LeftLeg
      LeftLeg LeftFoot
      LeftFoot LeftToeBase
      RightUpLeg RightLeg
      RightLeg RightFoot
      RightFoot RightToeBase
   end

# File created by Blade
# Date/Time:  Tue Jan 27 18:09:10 2015
# Frame Rate: 120.000 fps
#------------------------------------------------------
:FULLY-SPECIFIED
:DEGREES
899
root -1.428876 31.835954 -6.367718 6.184236 26.226102 5.878932
Spine -7.540849 4.490888 -3.759862
Head -3.718436 -18.755342 6.465425
LeftShoulder -7.184576 15.586476 4.903228
LeftArm 27.519561 41.354717 -68.282503
LeftForeArm -4.401364 -0.000000 13.703001
LeftHand -10.701025 -0.000000 -5.480969
LeftHandThumb1 -26.253704 0.000000 33.147579
RightShoulder 10.937705 38.953122 -30.323513
RightArm 48.949845 22.553704 116.597724
RightForeArm 32.870583 -0.000000 98.938542
RightHand -5.470767 -0.000000 6.931494
RightHandThumb1 -24.326973 -0.000000 -32.862282
LeftUpLeg -2.994037 -12.172948 -1.453901
LeftLeg 1.872138 -0.000000 -0.000000
LeftFoot -13.101119 9.983925 -23.627053
LeftToeBase 8.648632 -0.000000 -0.000000
RightUpLeg 5.829109 -15.673264 -4.465325
RightLeg -3.815357 -0.000000 0.000000
RightFoot -18.805791 -21.232849 12.202198
RightToeBase 5.595922 -0.000000 -0.000000
900
root -1.428568 31.835697 -6.370587 6.188552 26.227448 5.877694
Spine -7.544041 4.486457 -3.754722
Head -3.700040 -18.751438 6.451629
LeftShoulder -7.179254 15.591011 4.903106
LeftArm 27.481675 41.328110 -68.309212
LeftForeArm -4.429110 -0.000000 13.724024
LeftHand -10.738945 0.000000 -5.471240
LeftHandThumb1 -26.253704 0.000000 33.147579
RightShoulder 10.933597 38.938570 -30.323535
RightArm 48.918754 22.498378 116.565153
RightForeArm 32.684643 -0.000000 98.947180
RightHand -5.509811 -0.000000 6.906215
RightHandThumb1 -24.326973 -0.000000 -32.862282
LeftUpLeg -2.992460 -12.183026 -1.452007
LeftLeg 1.848416 -0.000000 -0.000000
LeftFoot -13.098839 9.981326 -23.642377
LeftToeBase 8.693456 -0.000000 -0.000000
RightUpLeg 5.820946 -15.670566 -4.463495
RightLeg -3.819571 -0.000000 0.000000
RightFoot -18.811045 -21.233695 12.216720
RightToeBase 5.627598 -0.000000 -0.000000
901
root -1.428382 31.835117 -6.373572 6.191816 26.226182 5.878281
Spine -7.540516 4.485164 -3.753402
Head -3.694731 -18.743488 6.438768
LeftShoulder -7.180362 15.602973 4.901782
LeftArm 27.476943 41.307245 -68.314620
LeftForeArm -4.486458 -0.000000 13.728613
LeftHand -10.736034 -0.000000 -5.479263
LeftHandThumb1 -26.253704 0.000000 33.147579
RightShoulder 10.932736 38.950767 -30.321477
RightArm 48.863675 22.464945 116.518417
RightForeArm 32.497013 -0.000000 98.976257
RightHand -5.555787 -0.000000 6.875986
RightHandThumb1 -24.326973 -0.000000 -32.862282
LeftUpLeg -2.990197 -12.185439 -1.452403
LeftLeg 1.830680 -0.000000 -0.000000
LeftFoot -13.095770 9.975213 -23.635606
LeftToeBase 8.725422 -0.000000 -0.000000
RightUpLeg 5.821761 -15.630455 -4.466930
RightLeg -3.833259 -0.000000 0.000000
RightFoot -18.813378 -21.236666 12.279878
RightToeBase 5.552181 -0.000000 -0.000000
902
root -1.427082 31.835410 -6.376085 6.196055 26.233347 5.882661
Spine -7.542207 4.463551 -3.750114
Head -3.674392 -18.722481 6.423882
LeftShoulder -7.183787 15.608134 4.895881
LeftArm 27.441599 41.275199 -68.346324
LeftForeArm -4.465693 0.000000 13.741297
LeftHand -10.736547 -0.000000 -5.502947
LeftHandThumb1 -26.253704 0.000000 33.147579
RightShoulder 10.940770 38.906382 -30.310268
RightArm 48.858794 22.394499 116.480929
RightForeArm 32.315946 -0.000000 99.000996
RightHand -5.590914 -0.000000 6.903679
RightHandThumb1 -24.326973 -0.000000 -32.862282
LeftUpLeg -2.988174 -12.163518 -1.458894
LeftLeg 1.812924 -0.000000 -0.000000
LeftFoot -13.072308 9.946801 -23.640019
LeftToeBase 8.702208 -0.000000 -0.000000
RightUpLeg 5.817095 -15.660676 -4.473589
RightLeg -3.833882 -0.000000 0.000000
RightFoot -18.802505 -21.210463 12.322796
RightToeBase 5.471208 -0.000000 -0.000000
903
root -1.427585 31.835938 -6.379882 6.210395 26.225718 5.896254
Spine -7.544636 4.470256 -3.767942
Head -3.666724 -18.721119 6.427462
LeftShoulder -7.171009 15.609875 4.898822
LeftArm 27.432054 41.260941 -68.346987
LeftForeArm -4.494754 -0.000000 13.747493
LeftHand -10.731589 -0.000000 -5.481608
LeftHandThumb1 -26.253704 0.000000 33.147579
RightShoulder 10.945690 38.894825 -30.287597
RightArm 48.817501 22.341421 116.425082
RightForeArm 32.175600 -0.000000 99.047031
RightHand -5.585383 0.000000 6.898918
RightHandThumb1 -24.326973 -0.000000 -32.862282
LeftUpLeg -3.013570 -12.085637 -1.481380
LeftLeg 1.833970 -0.000000 -0.000000
LeftFoot -13.042232 9.948929 -23.559842
LeftToeBase 8.657055 -0.000000 -0.000000
RightUpLeg 5.803541 -15.626081 -4.483174
RightLeg -3.839699 -0.000000 0.000000
RightFoot -18.803948 -21.263705 12.222249
RightToeBase 5.592712 -0.000000 -0.000000
904
root -1.427279 31.835792 -6.382664 6.216269 26.220157 5.893214
Spine -7.548895 4.463793 -3.760726
Head -3.654712 -18.712658 6.417618
LeftShoulder -7.176176 15.607199 4.899638
LeftArm 27.418388 41.261471 -68.358617
LeftForeArm -4.510959 -0.000000 13.749722
LeftHand -10.736014 -0.000000 -5.460624
LeftHandThumb1 -26.253704 0.000000 33.147579
RightShoulder 10.958001 38.888073 -30.277051
RightArm 48.773415 22.287612 116.371651
RightForeArm 32.042140 -0.000000 99.094844
RightHand -5.612699 0.000000 6.950184
RightHandThumb1 -24.326973 -0.000000 -32.862282
LeftUpLeg -3.019474 -12.054271 -1.481838
LeftLeg 1.831457 -0.000000 -0.000000
LeftFoot -13.005165 9.902805 -23.490054
LeftToeBase 8.577301 -0.000000 -0.000000
RightUpLeg 5.796845 -15.607285 -4.479453
RightLeg -3.854486 -0.000000 0.000000
RightFoot -18.803729 -21.267465 12.246586
RightToeBase 5.644902 -0.000000 -0.000000
905
root -1.426349 31.835508 -6.385595 6.223877 26.206065 5.896854
Spine -7.552706 4.463058 -3.755567
Head -3.639696 -18.704378 6.393350
LeftShoulder -7.193939 15.666579 4.879109
LeftArm 27.498492 41.241757 -68.301083
LeftForeArm -4.506001 -0.000000 13.747550
LeftHand -10.729912 -0.000000 -5.506835
LeftHandThumb1 -26.253704 0.000000 33.147579
RightShoulder 10.969011 38.851729 -30.276211
RightArm 48.753921 22.213127 116.312163
RightForeArm 31.921194 0.000000 99.143675
RightHand -5.613964 -0.000000 6.982181
RightHandThumb1 -24.326973 -0.000000 -32.862282
LeftUpLeg -3.015377 -12.049095 -1.485030
LeftLeg 1.795994 -0.000000 -0.000000
LeftFoot -13.007267 9.919299 -23.533611
LeftToeBase 8.635686 -0.000000 -0.000000
RightUpLeg 5.784814 -15.603932 -4.484966
RightLeg -3.856947 -0.000000 0.000000
RightFoot -18.789426 -21.273437 12.201541
RightToeBase 5.626094 -0.000000 -0.000000
906
root -1.425847 31.835426 -6.389015 6.225177 26.195449 5.894527
Spine -7.546019 4.452203 -3.751030
Head -3.632955 -18.692826 6.398437
LeftShoulder -7.176657 15.625023 4.894239
LeftArm 27.419510 41.236663 -68.366966
LeftForeArm -4.514811 -0.000000 13.756677
LeftHand -10.737468 -0.000000 -5.471742
LeftHandThumb1 -26.253704 0.000000 33.147579
RightShoulder 10.974235 38.834904 -30.260873
RightArm 48.716390 22.141521 116.228446
RightForeArm 31.829677 0.000000 99.195006
RightHand -5.642579 0.000000 7.049751
RightHandThumb1 -24.326973 -0.000000 -32.862282
LeftUpLeg -3.011109 -12.030170 -1.485063
LeftLeg 1.774898 -0.000000 -0.000000
LeftFoot -13.024207 9.910542 -23.584940
LeftToeBase 8.728891 -0.000000 -0.000000
RightUpLeg 5.773354 -15.591729 -4.485714
RightLeg -3.851452 -0.000000 0.000000
RightFoot -18.793948 -21.251358 12.257713
RightToeBase 5.594438 -0.000000 -0.000000
907
root -1.423771 31.834621 -6.391472 6.217182 26.179647 5.882432
Spine -7.540423 4.448247 -3.724059
Head -3.617149 -18.675712 6.366842
LeftShoulder -7.165721 15.627930 4.891169
LeftArm 27.400578 41.226276 -68.390846
LeftForeArm -4.517732 -0.000000 13.762782
LeftHand -10.747750 -0.000000 -5.465639
LeftHandThumb1 -26.253704 0.000000 33.147579
RightShoulder 10.978791 38.834148 -30.273692
RightArm 48.653525 22.080635 116.148432
RightForeArm 31.725697 -0.000000 99.260278
RightHand -5.681479 0.000000 7.078784
RightHandThumb1 -24.326973 -0.000000 -32.862282
LeftUpLeg -2.975006 -12.090862 -1.471479
LeftLeg 1.697676 -0.000000 -0.000000
LeftFoot -13.009914 9.957743 -23.603713
LeftToeBase 8.692978 -0.000000 -0.000000
RightUpLeg 5.773543 -15.569945 -4.480491
RightLeg -3.859080 -0.000000 0.000000
RightFoot -18.790607 -21.274151 12.218548
RightToeBase 5.637179 -0.000000 -0.000000
